<?xml version="1.0" encoding="UTF-8" standalone="no"?>
<svg
   xmlns:dc="http://purl.org/dc/elements/1.1/"
   xmlns:cc="http://creativecommons.org/ns#"
   xmlns:rdf="http://www.w3.org/1999/02/22-rdf-syntax-ns#"
   xmlns:svg="http://www.w3.org/2000/svg"
   xmlns="http://www.w3.org/2000/svg"
   viewBox="0 0 1190.5511 841.88977"
   id="svg2"
   height="841.88977"
   width="1190.5511"
   version="1.1">
  <metadata
     id="metadata108">
    <rdf:RDF>
      <cc:Work
         rdf:about="">
        <dc:format>image/svg+xml</dc:format>
        <dc:type
           rdf:resource="http://purl.org/dc/dcmitype/StillImage" />
      </cc:Work>
    </rdf:RDF>
  </metadata>
  <defs
     id="defs106" />
  <g
     id="Layer1000">
    <path
       id="path5"
       style="fill:#e30016;fill-rule:evenodd"
       d="m 1035.3205,348.2356 0,49.7062 -257.5799,0 c -26.047,-67.9378 -95.1668,-116.4966 -176.424,-116.4966 -81.259,0 -150.4217,48.5588 -176.4659,116.4966 l -254.2053,0 0,-49.7062 c 0,-10.4501 9.7889,-22.2318 20.5555,-24.7673 l 378.9386,-89.2011 c 8.3661,-1.9828 20.364,-3.0845 32.8379,-3.0845 12.5324,0 24.4728,1.1017 32.849,3.0845 l 378.9394,89.2011 c 10.7703,2.5355 20.5547,14.3172 20.5547,24.7673 z" />
    <path
       id="path7"
       style="fill:#e2181a;fill-rule:evenodd"
       d="m 1037.721,570.2132 0,-49.7071 -257.58,0 c -26.0469,67.9378 -95.1731,116.4948 -176.4266,116.4948 -81.2572,0 -150.4208,-48.557 -176.4632,-116.4948 l -254.2072,0 0,49.7071 c 0,10.451 9.7908,22.23 20.5574,24.7664 l 378.9367,89.2029 c 8.3644,1.9828 20.3659,3.0827 32.8417,3.0827 12.5305,0 24.4709,-1.0999 32.847,-3.0827 l 378.9395,-89.2029 c 10.7648,-2.5364 20.5547,-14.3154 20.5547,-24.7664 z" />
    <path
       id="path9"
       style="fill:#1b1918;fill-rule:evenodd"
       d="m 1109.0471,394.7241 0,126.5773 -1011.1449,0 0,-126.5773 1011.1449,0 z" />
    <path
       id="path11"
       style="fill:#009035;fill-rule:evenodd"
       d="m 602.9811,670.7536 c -115.8518,0 -210.1055,-94.2528 -210.1055,-210.1073 0,-115.8527 94.2537,-210.1065 210.1055,-210.1065 115.8527,0 210.1083,94.2538 210.1083,210.1065 0,115.8545 -94.2556,210.1073 -210.1083,210.1073 z" />
    <path
       id="path13"
       style="fill:#009035;fill-rule:evenodd"
       d="m 795.5499,460.6463 c 0,106.3528 -86.2123,192.5679 -192.5688,192.5679 -106.3502,0 -192.567,-86.2151 -192.567,-192.5679 0,-106.3511 86.2168,-192.568 192.567,-192.568 106.3565,0 192.5688,86.2169 192.5688,192.568 z" />
    <path
       id="path15"
       style="fill:#1b1918;fill-rule:evenodd"
       d="m 1035.3244,374.7468 -176.0393,0 0,8.0733 176.0393,0 0,-8.0733 z" />
    <path
       id="path17"
       style="fill:#1b1918;fill-rule:evenodd"
       d="m 1037.7087,532.9363 -177.811,0 0,8.0752 177.811,0 0,-8.0752 z" />
    <path
       id="path19"
       style="fill:#1b1918;fill-rule:evenodd"
       d="m 346.7068,374.7468 -176.0397,0 0,8.0733 176.0397,0 0,-8.0733 z" />
    <path
       id="path21"
       style="fill:#1b1918;fill-rule:evenodd"
       d="m 349.1061,532.9726 -176.0397,0 0,8.0752 176.0397,0 0,-8.0752 z" />
    <g
       id="Layer1001">
      <g
         id="Layer1002">
        <path
           id="path25"
           style="fill:#ffffff;fill-rule:evenodd"
           d="m 210.7059,450.0248 c -45.1035,1.2669 -16.6639,-32.4184 -11.9124,-37.458 0.017,4.4879 -10.1422,31.4727 16.1074,32.1323 l -4.195,5.3257 z" />
        <path
           id="path27"
           style="fill:#ffffff;fill-rule:evenodd"
           d="m 212.801,447.3649 c -34.9508,0.2663 -16.7213,-29.1991 -14.0075,-34.7981" />
      </g>
      <g
         id="Layer1003">
        <path
           id="path30"
           style="fill:#ffffff;fill-rule:evenodd"
           d="m 266.0983,510.7782 c 0.3533,-0.513 -27.6785,-11.0624 -32.04,-14.5151 -11.1993,-8.8654 -8.8857,-22.8571 30.212,-26.1365 26.6418,-2.2348 41.9246,-0.7288 64.4596,0.2838 -7.9506,-6.1797 -5.2224,-6.507 -20.5893,-8.9862 -65.7475,-10.607 -128.4857,19.8563 -100.0781,39.7618 6.2013,4.3451 43.8956,15.5042 58.0358,9.5922 z" />
      </g>
      <path
         id="path32"
         style="fill:none"
         d="m 266.0979,510.7779 c -0.1709,-0.0169 -0.3422,-0.0338 -0.5116,-0.0508 -79.5811,-7.9911 -55.4765,-43.8197 4.3236,-45.9425 24.2171,-0.8598 43.7337,0.0476 58.82,5.6258" />
      <path
         id="path34"
         style="fill:#ffffff;fill-rule:evenodd"
         d="m 227.9378,444.9031 61.9524,5.4179 -60.3731,7.4001 -1.5793,-12.818 z" />
      <path
         id="path36"
         style="fill:#ffffff;fill-rule:evenodd"
         d="m 237.6254,450.2224 8.1634,14.6601 -22.9887,15.7064 -8.1633,-14.6601 22.9886,-15.7064 z" />
      <path
         id="path38"
         style="fill:#ffffff;fill-rule:evenodd"
         d="m 215.9976,444.9265 -27.0603,-0.4836 27.144,22.638 27.0602,0.4836 -27.1439,-22.638 z" />
      <path
         id="path40"
         style="fill:#ffffff;fill-rule:evenodd"
         d="m 215.7652,465.9371 -13.8748,1.5643 -0.5681,4.8047 14.936,-1.6839 -0.4931,-4.6851 z" />
      <path
         id="path42"
         style="fill:#ffffff;fill-rule:evenodd"
         d="m 216.9197,467.5464 -19.7811,8.2944 -0.5743,4.8353 21.6297,-9.07 -1.2743,-4.0597 z" />
      <g
         id="Layer1004">
        <path
           id="path45"
           style="fill:#aa1113;fill-opacity:0;fill-rule:evenodd"
           d="m 221.2067,443.7848 6.1724,-1.0562 5.4949,-3.0029 4.222,-4.6245 2.4918,-5.7446 0.4915,-6.2425 -1.562,-6.0644 -3.4467,-5.228 -4.9572,-3.8261 -5.9311,-2.0086 -6.2619,0.026 -5.9141,2.0574 -4.9257,3.8664 -3.4034,5.2561 -1.5123,6.0771 0.5426,6.2381 2.539,5.724 4.2604,4.5895 5.5193,2.9581 6.1805,1.0051 z" />
        <g
           id="Layer1005">
          <g
             id="Layer1006">
            <path
               id="path49"
               style="fill:#ffffff;fill-rule:evenodd"
               d="m 209.7307,431.9062 4.0312,4.343 5.2232,2.799 5.8486,0.9513 5.8409,-0.9995 5.1998,-2.8416 3.9954,-4.3762 2.358,-5.4364 0.4651,-5.9072 -1.4783,-5.7385 -3.2614,-4.9474 -4.6912,-3.6204 -5.6125,-1.9009 -5.9257,0.0243 -5.5965,1.947 -4.6614,3.6589 -3.2204,4.974 -1.4311,5.7506 0.5136,5.9033 2.4027,5.4167 z" />
            <path
               id="path51"
               style="fill:#000000;fill-rule:evenodd"
               d="m 224.8379,441.021 6.1723,-1.0562 5.4948,-3.003 4.2224,-4.6244 2.4916,-5.7449 0.4915,-6.2425 -1.5621,-6.0641 -3.4466,-5.2281 -4.9572,-3.826 -5.9311,-2.0087 -6.2619,0.0258 -5.9141,2.0574 -4.9258,3.8666 -3.4034,5.2561 -1.5122,6.077 0.5425,6.2383 2.5391,5.7239 4.2604,4.5896 5.5193,2.9579 6.1805,1.0053 z m 5.501,-2.9857 0,0 -5.5093,0.9426 -5.5169,-0.8971 -4.9265,-2.6401 -3.8029,-4.0966 -2.2662,-5.1095 -0.4843,-5.5682 1.3496,-5.4242 3.0379,-4.6918 4.3969,-3.4514 5.279,-1.8365 5.5893,-0.0228 5.294,1.7929 4.425,3.415 3.0764,4.6667 1.3944,5.4128 -0.4387,5.572 -2.2241,5.1279 -3.7688,4.1281 -4.9048,2.6802 z" />
          </g>
          <g
             id="Layer1007">
            <path
               id="path54"
               style="fill:#e2181a;fill-rule:evenodd"
               d="m 214.6154,422.1151 c 0,5.5993 4.5391,10.1387 10.1382,10.1387 5.5991,0 10.1381,-4.5394 10.1381,-10.1387 0,-5.599 -4.539,-10.138 -10.1381,-10.138 -5.5991,0 -10.1382,4.539 -10.1382,10.138 z" />
          </g>
        </g>
      </g>
    </g>
    <path
       id="path56"
       style="fill:#ffffff;fill-rule:evenodd"
       d="m 372.7174,518.902 c -3.1733,0 -6.5359,-0.8244 -10.0892,-2.4746 -4.1884,-2.0303 -6.2822,-4.4413 -6.2822,-7.2338 0,-1.1415 0.6343,-4.5684 1.9038,-10.2791 0.3808,-2.2846 0.9515,-5.7743 1.7131,-10.4699 0.1271,-0.6344 1.0151,-4.2513 2.6653,-10.8507 1.1416,-4.6948 1.7131,-8.3117 1.7131,-10.8499 0,-4.3148 -1.5867,-12.6273 -4.7592,-24.9375 -2.411,-9.264 -3.9341,-15.2283 -4.5684,-17.8937 -1.6502,-7.4873 -2.6018,-13.5152 -2.8554,-18.0844 -0.1272,-1.2687 -0.3807,-3.6797 -0.7615,-7.2338 -0.5079,-3.0453 -0.7615,-5.4564 -0.7615,-7.233 0,-0.8887 0.4757,-2.3482 1.428,-4.3784 0.9516,-2.031 1.7445,-3.0461 2.3789,-3.0461 0.1271,0 0.3807,0.0635 0.7615,0.1907 0.8887,-0.3807 1.5866,-0.5715 2.0938,-0.5715 0.2544,0 0.7301,0.2858 1.4281,0.8565 0.6979,0.5716 1.3644,0.8573 1.9988,0.8573 3.2997,0 5.7107,1.9667 7.2338,5.9007 l 5.3299,13.5153 c 0.2536,0.6351 1.6495,6.0287 4.1877,16.1806 0.7615,3.0461 1.9674,7.6782 3.6169,13.8968 0.5079,0 1.6816,-1.428 3.5219,-4.2834 1.8402,-2.8554 6.6944,-10.7549 14.5625,-23.6994 8.2489,-13.8332 12.5002,-21.1934 12.7538,-22.0821 l -0.5708,0.5715 c 6.5994,-10.1527 10.7235,-15.2291 12.373,-15.2291 2.1574,0 4.7591,1.1737 7.8053,3.5219 3.0453,2.3474 4.5684,4.5999 4.5684,6.7573 0,3.6804 -5.4571,14.3404 -16.3706,31.9804 -13.8332,22.3357 -20.8763,33.7572 -21.1306,34.2651 -2.0302,3.6805 -5.0128,9.264 -8.9468,16.7514 -2.0303,4.0612 -4.3777,12.0565 -7.0431,23.9852 -2.1574,10.1527 -3.6169,18.5288 -4.3784,25.1274 -0.2536,2.5382 -0.8879,4.252 -1.9038,5.14 -1.0151,0.8887 -2.2203,1.3323 -3.6161,1.3323 z m 120.1166,-3.8069 c 0,2.5382 -1.5867,3.8069 -4.7592,3.8069 -0.3808,0 -0.9516,-0.1264 -1.7131,-0.38 -0.7615,-0.2544 -1.3323,-0.3808 -1.7131,-0.3808 -0.6343,0 -1.4594,0.2214 -2.4745,0.6658 -1.0152,0.4443 -1.8403,0.6665 -2.4746,0.6665 -2.919,0 -4.95,-2.0624 -6.0915,-6.1551 -1.1423,-4.0926 -2.221,-13.0395 -3.2362,-26.8091 -0.1271,-1.523 -0.3179,-2.7282 -0.5715,-3.5847 -0.3807,-1.6502 -1.0787,-2.4746 -2.0938,-2.4746 l -3.8069,0 c -14.0868,-0.1272 -21.7327,0.6344 -22.9386,2.2838 -1.2059,1.6503 -2.7604,5.2036 -4.6642,10.66 -2.411,6.5994 -3.8705,10.407 -4.3777,11.4221 -1.3959,2.919 -2.4117,5.52 -3.0461,7.8046 -1.0151,3.2997 -1.7131,5.4571 -2.0938,6.4722 -0.8887,2.5382 -1.9674,4.4735 -3.2361,5.8058 -1.2695,1.333 -2.9826,1.9988 -5.14,1.9988 -7.3602,0 -11.0407,-1.9038 -11.0407,-5.7107 0,-3.9341 4.9492,-19.2896 14.8484,-46.0673 9.6447,-25.889 15.9898,-41.5617 19.0359,-47.0188 2.2839,-5.8371 5.33,-13.6424 9.1369,-23.4144 6.853,-17.5129 11.485,-26.269 13.8968,-26.269 4.6948,0 9.7076,0.5708 15.0383,1.7131 7.6138,1.6494 11.4214,3.9976 11.4214,7.043 0,0.6343 0,1.6502 0,3.0461 0,1.3959 0,2.411 0,3.0454 0,5.8379 0.1586,14.5311 0.4758,26.0797 0.3172,11.5479 0.4758,20.2411 0.4758,26.079 0,1.5231 -0.095,3.8705 -0.2858,7.043 -0.19,3.1733 -0.285,5.5207 -0.285,7.0438 0,3.1725 0.19,7.8046 0.5708,13.896 0.3807,5.4572 0.5715,17.6401 0.5715,36.5489 0,0.508 0.095,1.3331 0.285,2.4746 0.1908,1.1423 0.2858,2.031 0.2858,2.6654 z m -21.7014,-61.1056 c 0,-3.1725 -0.1586,-7.8046 -0.4757,-13.896 -0.3172,-6.0915 -0.4758,-10.6599 -0.4758,-13.7061 0,-3.8069 -0.2536,-7.2337 -0.7615,-10.2791 -0.1265,-0.6351 -0.4444,-1.2695 -0.9516,-1.9038 0,0 0,0.0636 0,0.19 0,0.3807 -0.8251,2.4753 -2.4746,6.2822 -11.295,25.2547 -16.9421,38.4527 -16.9421,39.595 0,0.7616 1.7766,1.1423 5.3299,1.1423 0.6344,0 1.5231,0 2.6654,0 1.2687,0.1265 2.2202,0.19 2.8553,0.19 4.0605,0 6.7259,-0.3171 7.9946,-0.9515 2.1574,-1.0159 3.2361,-3.2361 3.2361,-6.663 z m 91.1823,-2.2838 c 0,0.2536 0.5715,1.6494 1.713,4.1876 2.5382,5.7107 6.4094,13.7696 11.6122,24.1759 8.3761,16.8786 12.5638,26.079 12.5638,27.6021 0,1.0151 -1.6495,3.0139 -4.9492,5.9965 -3.2997,2.9818 -5.4572,4.4734 -6.4723,4.4734 -1.0151,0 -3.1089,-1.8402 -6.2822,-5.5207 -5.4564,-6.3451 -10.2792,-13.5153 -14.4668,-21.5106 -5.0764,-9.6448 -9.074,-16.6885 -11.993,-21.1298 -1.9038,-2.9189 -3.2997,-4.3784 -4.1876,-4.3784 -0.3808,0 -0.6344,1.1423 -0.7616,3.4261 -0.2536,3.4269 -0.7615,7.4874 -1.523,12.183 -4.442,26.1433 -8.5661,39.2142 -12.373,39.2142 -2.7925,0 -5.9015,-0.7615 -9.3276,-2.2838 -4.0612,-1.6502 -6.0922,-3.6805 -6.0922,-6.0915 0,0.888 0.2543,-0.6987 0.7615,-4.7913 0.3808,-2.0303 0.8887,-5.0128 1.523,-8.9469 1.2695,-8.3753 3.4269,-21.0348 6.4723,-37.9448 1.1423,-5.9643 2.7289,-14.9119 4.7592,-26.8727 0.6343,-4.6956 1.6495,-11.8022 3.0453,-21.3519 3.6805,-21.8592 6.663,-32.7735 8.9469,-32.7735 2.4117,0 5.3307,0.3172 8.7568,0.9516 4.3149,0.8887 6.853,1.9674 7.6146,3.2361 0.2536,0.3808 0.3807,1.2373 0.3807,2.5068 0,4.0612 -1.2059,13.4202 -3.6169,28.0464 -0.2536,1.5544 -0.6343,3.839 -1.1423,6.8844 -1.9038,9.8034 -2.8553,15.7999 -2.8553,17.9573 0,0.5079 0.1272,0.8887 0.3808,1.1423 1.1422,0 9.6133,-10.5971 25.4132,-31.7905 15.7998,-21.1934 25.1589,-31.7897 28.0778,-31.7897 1.1423,0 3.4261,1.4594 6.853,4.3784 3.4261,2.9189 5.14,4.9492 5.14,6.0915 0,1.7766 -3.2362,6.6622 -9.7084,14.6575 -4.1884,4.9492 -8.3761,9.8984 -12.5637,14.8484 -4.6956,5.9643 -9.4548,11.9286 -14.2776,17.8936 -7.6138,9.8984 -11.4214,15.6727 -11.4214,17.323 z m 127.3504,-64.9133 c -0.6344,3.5533 -1.6495,8.9469 -3.0454,16.1806 -0.7615,3.4269 -2.4746,14.5948 -5.14,33.5036 -1.2687,9.5176 -2.5381,19.036 -3.8069,28.5536 -1.7766,11.1678 -3.9026,20.3368 -6.3772,27.507 -2.4746,7.1702 -5.4257,12.5959 -8.8518,16.2764 -7.8682,8.2489 -16.1807,12.373 -24.9375,12.373 -3.0454,0 -8.0581,-1.7767 -15.0383,-5.33 -12.6902,-6.4722 -19.036,-16.815 -19.036,-31.0289 0,-4.4413 0.7615,-11.1679 2.2846,-20.1775 1.2687,-7.6146 4.632,-24.6839 10.0891,-51.2073 1.0151,-6.345 2.8554,-15.1655 5.52,-26.4597 0.8887,-2.4118 1.9038,-3.6169 3.0461,-3.6169 2.7918,0 6.1551,0.5708 10.0891,1.7131 4.9492,1.523 7.4238,3.2997 7.4238,5.3299 0,0.7615 -0.2536,2.1574 -0.7615,4.1884 -0.5072,2.411 -0.8244,3.8705 -0.9515,4.3777 -1.7767,11.4222 -5.14,28.7443 -10.0892,51.9687 -2.7918,13.1981 -4.1876,24.0488 -4.1876,32.5513 0,11.4214 2.7917,17.1321 8.3753,17.1321 6.0915,0 11.0414,-3.934 14.8483,-11.8022 2.6654,-5.7107 5.0128,-14.7211 7.043,-27.0313 1.3967,-9.5176 2.729,-19.0359 3.9977,-28.5536 1.2694,-9.1375 3.1733,-22.78 5.7107,-40.9273 1.1423,-7.7417 3.1733,-11.6122 6.0915,-11.6122 3.0461,0 6.4722,0.4444 10.2799,1.3331 5.3299,1.1415 7.8045,2.7282 7.4238,4.7584 z m 29.5058,104.5075 c 2.919,0.3808 7.2966,0.8887 13.1345,1.5231 8.1218,0.8887 14.404,1.3323 18.846,1.3323 2.2838,0 3.8705,0.8887 4.7584,2.6653 0.8887,1.7767 1.3331,3.8705 1.3331,6.2815 0,1.7774 -0.3172,4.1249 -0.9523,7.0438 -0.7615,3.5533 -1.7131,5.33 -2.8554,5.33 -0.2535,0 -0.6979,-0.0636 -1.3323,-0.1901 -0.5079,0 -0.9515,0 -1.3323,0 -1.1423,0 -2.8553,0.095 -5.1399,0.2851 -2.2846,0.1907 -3.9977,0.2857 -5.1399,0.2857 -2.6647,0 -6.6623,-0.1586 -11.9923,-0.4758 -5.3299,-0.3171 -9.3276,-0.4757 -11.9929,-0.4757 -1.7767,0 -4.4099,0.095 -7.8996,0.285 -3.4904,0.1907 -6.0286,0.2858 -7.6145,0.2858 -1.5867,0 -3.1411,0.3807 -4.6642,1.1422 -1.523,0.7616 -2.3474,1.1423 -2.4746,1.1423 -1.3959,0 -2.7918,-2.5381 -4.1876,-7.6145 -1.1423,-4.442 -1.7131,-7.7417 -1.7131,-9.8991 0,-2.6646 10.7549,-18.1159 32.2655,-46.3523 21.5105,-28.2364 32.2662,-43.8777 32.2662,-46.9238 0,-0.5072 -0.6979,-0.7615 -2.0938,-0.7615 -4.6956,0 -8.9469,-0.0636 -12.7545,-0.19 -1.0151,0 -2.9818,-0.1272 -5.9007,-0.3808 -2.4118,-0.1272 -4.3785,-0.1908 -5.9015,-0.1908 l -2.0938,0 c -0.508,0 -1.2059,0.1272 -2.0939,0.3808 -0.8887,0.2543 -1.5866,0.3808 -2.0938,0.3808 -2.1574,0 -3.2361,-4.9492 -3.2361,-14.8476 0,-5.0764 5.8371,-7.6145 17.5129,-7.6145 l 11.0407,0 c 10.9142,0 18.5288,0.2535 22.8428,0.7615 1.0159,0.1264 1.8403,0.19 2.4754,0.19 0.8879,0 2.1252,-0.3486 3.7119,-1.0466 1.5859,-0.6986 2.4424,-1.0472 2.5696,-1.0472 1.523,0 3.3311,1.8402 5.4257,5.5207 2.0938,3.6797 3.1404,6.345 3.1404,7.9945 0,4.8228 -8.2489,17.1958 -24.7467,37.1204 -3.1726,3.8069 -7.551,9.5813 -13.1345,17.323 -18.1481,25.0003 -27.4757,38.5791 -27.9829,40.7365 z m 140.1049,23.7952 c 0,2.5382 -1.5866,3.8069 -4.7592,3.8069 -0.3807,0 -0.9515,-0.1264 -1.713,-0.38 -0.7616,-0.2544 -1.3324,-0.3808 -1.7131,-0.3808 -0.6344,0 -1.4595,0.2214 -2.4746,0.6658 -1.0151,0.4443 -1.8402,0.6665 -2.4746,0.6665 -2.9189,0 -4.9499,-2.0624 -6.0915,-6.1551 -1.1423,-4.0926 -2.221,-13.0395 -3.2361,-26.8091 -0.1272,-1.523 -0.3179,-2.7282 -0.5715,-3.5847 -0.3808,-1.6502 -1.0787,-2.4746 -2.0939,-2.4746 l -3.8069,0 c -14.0867,-0.1272 -21.7327,0.6344 -22.9386,2.2838 -1.2059,1.6503 -2.7603,5.2036 -4.6642,10.66 -2.411,6.5994 -3.8704,10.407 -4.3776,11.4221 -1.3959,2.919 -2.4118,5.52 -3.0462,7.8046 -1.0151,3.2997 -1.713,5.4571 -2.0938,6.4722 -0.8887,2.5382 -1.9674,4.4735 -3.2361,5.8058 -1.2695,1.333 -2.9825,1.9988 -5.14,1.9988 -7.3602,0 -11.0406,-1.9038 -11.0406,-5.7107 0,-3.9341 4.9492,-19.2896 14.8483,-46.0673 9.6448,-25.889 15.9899,-41.5617 19.036,-47.0188 2.2838,-5.8371 5.3299,-13.6424 9.1368,-23.4144 6.853,-17.5129 11.485,-26.269 13.8968,-26.269 4.6949,0 9.7076,0.5708 15.0383,1.7131 7.6138,1.6494 11.4215,3.9976 11.4215,7.043 0,0.6343 0,1.6502 0,3.0461 0,1.3959 0,2.411 0,3.0454 0,5.8379 0.1586,14.5311 0.4757,26.0797 0.3172,11.5479 0.4758,20.2411 0.4758,26.079 0,1.5231 -0.095,3.8705 -0.2858,7.043 -0.19,3.1733 -0.285,5.5207 -0.285,7.0438 0,3.1725 0.19,7.8046 0.5708,13.896 0.3808,5.4572 0.5715,17.6401 0.5715,36.5489 0,0.508 0.095,1.3331 0.285,2.4746 0.1908,1.1423 0.2858,2.031 0.2858,2.6654 z m -21.7013,-61.1056 c 0,-3.1725 -0.1586,-7.8046 -0.4758,-13.896 -0.3172,-6.0915 -0.4758,-10.6599 -0.4758,-13.7061 0,-3.8069 -0.2536,-7.2337 -0.7615,-10.2791 -0.1264,-0.6351 -0.4443,-1.2695 -0.9515,-1.9038 0,0 0,0.0636 0,0.19 0,0.3807 -0.8251,2.4753 -2.4746,6.2822 -11.295,25.2547 -16.9422,38.4527 -16.9422,39.595 0,0.7616 1.7767,1.1423 5.33,1.1423 0.6343,0 1.523,0 2.6653,0 1.2687,0.1265 2.2203,0.19 2.8554,0.19 4.0605,0 6.7258,-0.3171 7.9945,-0.9515 2.1575,-1.0159 3.2362,-3.2361 3.2362,-6.663 z" />
    <g
       id="Layer1008">
      <g
         id="Layer1009">
        <path
           id="path60"
           style="fill:#ffffff;fill-rule:evenodd"
           d="m 996.7154,450.1342 c 45.1035,1.2669 16.6638,-32.4184 11.9123,-37.458 -0.017,4.4878 10.1422,31.4727 -16.1074,32.1322 l 4.1951,5.3258 z" />
        <path
           id="path62"
           style="fill:#ffffff;fill-rule:evenodd"
           d="m 994.6202,447.4742 c 34.9508,0.2663 16.7213,-29.199 14.0075,-34.798" />
      </g>
      <g
         id="Layer1010">
        <path
           id="path65"
           style="fill:#ffffff;fill-rule:evenodd"
           d="m 941.3229,510.8876 c -0.3533,-0.5131 27.6785,-11.0624 32.04,-14.5151 11.1994,-8.8655 8.8857,-22.8572 -30.2119,-26.1366 -26.6419,-2.2348 -41.9247,-0.7287 -64.4597,0.2838 7.9506,-6.1796 5.2224,-6.507 20.5893,-8.9861 65.7475,-10.607 128.4857,19.8563 100.0781,39.7618 -6.2013,4.3451 -43.8956,15.5042 -58.0358,9.5922 z" />
      </g>
      <path
         id="path67"
         style="fill:none"
         d="m 941.3233,510.8873 c 0.1709,-0.0169 0.3423,-0.0339 0.5116,-0.0509 79.5812,-7.991 55.4766,-43.8196 -4.3235,-45.9424 -24.2172,-0.8598 -43.7338,0.0475 -58.8201,5.6257" />
      <path
         id="path69"
         style="fill:#ffffff;fill-rule:evenodd"
         d="m 979.4834,445.0125 -61.9524,5.4179 60.3732,7.4001 1.5792,-12.818 z" />
      <path
         id="path71"
         style="fill:#ffffff;fill-rule:evenodd"
         d="m 969.7958,450.3317 -8.1634,14.6601 22.9887,15.7064 8.1634,-14.6601 -22.9887,-15.7064 z" />
      <path
         id="path73"
         style="fill:#ffffff;fill-rule:evenodd"
         d="m 991.4237,445.0359 27.0602,-0.4837 -27.1439,22.638 -27.0603,0.4837 27.144,-22.638 z" />
      <path
         id="path75"
         style="fill:#ffffff;fill-rule:evenodd"
         d="m 991.656,466.0465 13.8748,1.5643 0.5681,4.8047 -14.936,-1.684 0.4931,-4.685 z" />
      <path
         id="path77"
         style="fill:#ffffff;fill-rule:evenodd"
         d="m 990.5015,467.6557 19.7811,8.2944 0.5744,4.8353 -21.6298,-9.0699 1.2743,-4.0598 z" />
      <g
         id="Layer1011">
        <path
           id="path80"
           style="fill:#aa1113;fill-opacity:0;fill-rule:evenodd"
           d="m 986.2145,443.8942 -6.1724,-1.0562 -5.4949,-3.003 -4.222,-4.6244 -2.4918,-5.7446 -0.4914,-6.2425 1.5619,-6.0644 3.4467,-5.2281 4.9573,-3.826 5.931,-2.0087 6.2619,0.0261 5.9141,2.0574 4.9258,3.8663 3.4033,5.2561 1.5123,6.0772 -0.5426,6.2381 -2.539,5.7239 -4.2604,4.5896 -5.5193,2.9581 -6.1805,1.0051 z" />
        <g
           id="Layer1012">
          <g
             id="Layer1013">
            <path
               id="path84"
               style="fill:#ffffff;fill-rule:evenodd"
               d="m 997.6905,432.0155 -4.0312,4.3431 -5.2231,2.799 -5.8487,0.9512 -5.8408,-0.9994 -5.1998,-2.8416 -3.9955,-4.3762 -2.358,-5.4364 -0.4651,-5.9073 1.4783,-5.7385 3.2614,-4.9474 4.6912,-3.6203 5.6125,-1.901 5.9257,0.0244 5.5966,1.9469 4.6613,3.659 3.2204,4.974 1.4311,5.7505 -0.5136,5.9033 -2.4027,5.4167 z" />
            <path
               id="path86"
               style="fill:#000000;fill-rule:evenodd"
               d="m 982.5833,441.1303 -6.1723,-1.0562 -5.4948,-3.0029 -4.2223,-4.6245 -2.4917,-5.7448 -0.4915,-6.2426 1.5622,-6.0641 3.4465,-5.2281 4.9573,-3.8259 5.931,-2.0087 6.2619,0.0258 5.9142,2.0574 4.9257,3.8666 3.4034,5.2561 1.5122,6.0769 -0.5425,6.2384 -2.5391,5.7239 -4.2604,4.5895 -5.5193,2.9579 -6.1805,1.0053 z m -5.501,-2.9857 0,0 5.5093,0.9426 5.5169,-0.897 4.9266,-2.6401 3.8028,-4.0966 2.2662,-5.1096 0.4844,-5.5682 -1.3497,-5.4241 -3.0379,-4.6919 -4.3969,-3.4513 -5.279,-1.8365 -5.5893,-0.0229 -5.294,1.793 -4.4249,3.4149 -3.0765,4.6668 -1.3944,5.4128 0.4387,5.5719 2.2242,5.128 3.7687,4.1281 4.9048,2.6801 z" />
          </g>
          <g
             id="Layer1014">
            <path
               id="path89"
               style="fill:#e2181a;fill-rule:evenodd"
               d="m 992.8058,422.2245 c 0,5.5993 -4.5391,10.1386 -10.1381,10.1386 -5.5992,0 -10.1382,-4.5393 -10.1382,-10.1386 0,-5.599 4.539,-10.1381 10.1382,-10.1381 5.599,0 10.1381,4.5391 10.1381,10.1381 z" />
          </g>
        </g>
      </g>
    </g>
    <g
       id="Layer1015">
      <path
         id="path92"
         style="fill:#ffffff;fill-rule:evenodd"
         d="m 506.3219,604.4701 c -0.09,-0.542 1.5759,-1.2789 3.702,-1.6379 l 207.7157,-35.0733 c 2.1262,-0.3591 4.1544,1.0877 4.5073,3.2147 l 0.4186,2.5205 c 0.3531,2.127 -1.1078,4.0939 -3.2459,4.3712 L 510.373,604.952 c -2.1382,0.2772 -3.9611,0.0604 -4.0511,-0.4819 z" />
      <path
         id="path94"
         style="fill:#ffffff;fill-rule:evenodd"
         d="m 508.2936,612.2965 c 0.1733,0.5217 1.9908,0.3965 4.0389,-0.278 l 200.0851,-65.8949 c 2.0477,-0.6743 3.1668,-2.9004 2.4863,-4.9463 l -0.8057,-2.4242 c -0.6803,-2.0459 -2.89,-3.104 -4.9106,-2.3516 L 511.6519,609.98 c -2.0206,0.7525 -3.5316,1.7952 -3.3583,2.3165 z" />
      <path
         id="path96"
         style="fill:#ffffff;fill-rule:evenodd"
         d="m 707.8028,536.869 0.8274,-0.282 3.3012,9.7046 -0.8274,0.2813 -3.3012,-9.7039 z" />
      <path
         id="path98"
         style="fill:#ffffff;fill-rule:evenodd"
         d="m 705.5863,537.7001 0.8274,-0.282 3.3019,9.7046 -0.8274,0.2813 -3.3019,-9.7039 z" />
      <path
         id="path100"
         style="fill:#ffffff;fill-rule:evenodd"
         d="m 716.0345,568.0064 0.8663,-0.1145 1.3375,10.1258 -0.8663,0.1152 -1.3375,-10.1265 z" />
      <path
         id="path102"
         style="fill:#ffffff;fill-rule:evenodd"
         d="m 713.6437,568.4126 0.8655,-0.122 1.4415,10.0323 -0.8655,0.1212 -1.4415,-10.0315 z" />
    </g>
  </g>
</svg>
